<svg id="outline" height="512" viewBox="0 0 512 512" width="512" xmlns="http://www.w3.org/2000/svg"><path d="m256 16a80 80 0 1 0 80 80 80.09041 80.09041 0 0 0 -80-80zm0 144a64 64 0 1 1 64-64 64.07239 64.07239 0 0 1 -64 64z"/><path d="m277.65674 95.0293-5.73731-40.16114a7.99986 7.99986 0 0 0 -7.91943-6.86816h-16a7.99986 7.99986 0 0 0 -7.91943 6.86816l-5.73731 40.16114a21.877 21.877 0 0 0 38.18408 17.4277c.12952-.14941.25013-.30469.37525-.457h31.09741v-16h-26.2312c-.03174-.32373-.06592-.64722-.11206-.9707zm-17.2168 6.94433a5.87684 5.87684 0 0 1 -10.25781-4.68063l4.75635-33.293h2.123l4.75635 33.293a5.80992 5.80992 0 0 1 -1.37789 4.68063z"/><path d="m408 64h-56v16h56a8.00917 8.00917 0 0 1 8 8v384a8.00917 8.00917 0 0 1 -8 8h-304a8.00917 8.00917 0 0 1 -8-8v-384a8.00917 8.00917 0 0 1 8-8h56v-16h-56a24.02718 24.02718 0 0 0 -24 24v384a24.02718 24.02718 0 0 0 24 24h304a24.02718 24.02718 0 0 0 24-24v-384a24.02718 24.02718 0 0 0 -24-24z"/><path d="m384 400v-192a8.00008 8.00008 0 0 0 -8-8h-144a8.00008 8.00008 0 0 0 -8 8v40h-88a8.00008 8.00008 0 0 0 -8 8v192a8.00008 8.00008 0 0 0 8 8h96a8.00008 8.00008 0 0 0 8-8v-40h136a8.00008 8.00008 0 0 0 8-8zm-104-56h-40v-32h80v32zm-48 48h-88v-32h128v32zm-8-48h-32v-32h32zm-48 0h-32v-32h32zm192-48h-32v-32h32zm-32 16h32v32h-32zm32-64h-80v-32h80zm-128-32h32v32h-32zm40 48h40v32h-128v-32zm-136 0h32v32h-32zm0 144h32v32h-32zm80 32h-32v-32h32zm64-80h32v32h-32zm80 32h-32v-32h32z"/><path d="m152 216h16v16h-16z"/><path d="m192 216h16v16h-16z"/><path d="m256 424h16v16h-16z"/><path d="m296 424h16v16h-16z"/><path d="m336 424h16v16h-16z"/></svg>